<svg id="Layer_1" data-name="Layer 1" xmlns="http://www.w3.org/2000/svg" viewBox="0 0 130.25 60.5"><defs><style>.cls-1{fill:#fff;}</style></defs><title>Artboard 2 copy 3</title><path class="cls-1" d="M34,7,18.13,27.75V7h-10V53h10V39l3.4-4.23L35.2,53h87.93V7Zm88.16,45H46.34L27.8,28.6,45.07,8h77.06Z"/><path class="cls-1" d="M57.43,32l-6.74-2c-2.64-.76-3.17-1.72-3.17-3.6V24.75c0-2.74,1.49-4.23,4.23-4.23h4.36c2.74,0,4.23,1.49,4.23,4.23v1.12h.79V24.81c0-3.27-1.75-5-5-5H51.75c-3.27,0-5,1.75-5,5v1.55c0,2.35.8,3.5,4,4.43l6.74,1.94c2.6.77,3.17,1.82,3.17,3.58v2.31c0,2.74-1.48,4.23-4.22,4.23H51.61c-2.74,0-4.23-1.49-4.23-4.23V37H46.6v1.55c0,3.28,1.75,5,5,5h4.76c3.27,0,5-1.75,5-5V36.37C61.39,34,60.56,32.87,57.43,32Z"/><path class="cls-1" d="M65.09,19.8v.73h7.69V43.57h.8V20.52h7.69V19.8Z"/><path class="cls-1" d="M90,29.17l-.1-.28h-.79l-.1.28-5.38,14.4h.5l1.6-4.29h7.54l1.61,4.29h.49Zm-4.1,9.65,3.6-9.64,3.61,9.64Z"/><path class="cls-1" d="M97.71,19.8v.73h7.69V43.57h.8V20.52h7.69V19.8Z"/><path class="cls-1" d="M95.74,24.94a2.25,2.25,0,0,0-.73-.53l-.18-.09c-.23-.09-.45-.17-.67-.25L93.94,24a.08.08,0,0,1,0,0l.06,0a5.84,5.84,0,0,1,.82.32l.23.12a2,2,0,0,1,.63.49.73.73,0,0,1,.15.5.45.45,0,0,1-.09.25.85.85,0,0,1-.16.21,3.16,3.16,0,0,1-1,.59,11.72,11.72,0,0,1-2.43.57,18.23,18.23,0,0,1-2.11.15H89a18.06,18.06,0,0,1-2.11-.15,11.82,11.82,0,0,1-2.44-.57,3.22,3.22,0,0,1-1-.59,1.23,1.23,0,0,1-.17-.21.68.68,0,0,1-.08-.26.66.66,0,0,1,.15-.49,1.92,1.92,0,0,1,.57-.46,1.62,1.62,0,0,1,.3-.15,5.39,5.39,0,0,1,.82-.32l.09,0s0,0,0,0l-.22.06-.68.25-.25.12a2.19,2.19,0,0,0-.66.5.81.81,0,0,0-.18.57.49.49,0,0,0,.07.23,1,1,0,0,0,.2.31,3.28,3.28,0,0,0,1,.63,10.36,10.36,0,0,0,2.46.62,16.56,16.56,0,0,0,2.15.17H90a16.41,16.41,0,0,0,2.13-.17,10.45,10.45,0,0,0,2.47-.62,3.28,3.28,0,0,0,1-.63,1.28,1.28,0,0,0,.21-.31.62.62,0,0,0,.06-.23A.86.86,0,0,0,95.74,24.94Z"/><path class="cls-1" d="M98.12,25.72s0,0,0,0a1.14,1.14,0,0,0-.15-.32,3.16,3.16,0,0,0-1.17-.95,8.24,8.24,0,0,0-.83-.37l-.49-.16-.62-.18-.54-.13h-.12a0,0,0,0,1,0,0l.69.18.59.18.29.1a7.09,7.09,0,0,1,1,.45,3,3,0,0,1,1.12.94,1.25,1.25,0,0,1,.14.29.93.93,0,0,1,0,.41,1.21,1.21,0,0,1-.32.68,3.84,3.84,0,0,1-1.33.91,13.52,13.52,0,0,1-3.31.9,23.22,23.22,0,0,1-3.17.25h-.79A23.35,23.35,0,0,1,86,28.65c-.58-.09-1.15-.2-1.71-.35a9.88,9.88,0,0,1-1.6-.55,3.88,3.88,0,0,1-1.34-.91,1.2,1.2,0,0,1-.31-.68.93.93,0,0,1,0-.41,1.07,1.07,0,0,1,.14-.29,3,3,0,0,1,1.12-.94,6.59,6.59,0,0,1,1-.45l.29-.1c.18-.07.37-.12.54-.17a7.86,7.86,0,0,1,.78-.19h-.16l-.59.15c-.19,0-.39.1-.58.16l-.48.16a7.33,7.33,0,0,0-.83.37,3.18,3.18,0,0,0-1.18.95,1.06,1.06,0,0,0-.11.21,1.1,1.1,0,0,0-.1.57,1.33,1.33,0,0,0,.33.77,4,4,0,0,0,1.38,1,12.56,12.56,0,0,0,3.35,1,22.48,22.48,0,0,0,3.11.28h1a22.2,22.2,0,0,0,3.09-.28,12.64,12.64,0,0,0,3.36-1,4.14,4.14,0,0,0,1.38-1,1.4,1.4,0,0,0,.33-.77A1.14,1.14,0,0,0,98.12,25.72Z"/><path class="cls-1" d="M89.52,16.42a4.16,4.16,0,0,0-4.2,4.11,4.71,4.71,0,0,0,1.25,3.06,6.25,6.25,0,0,0,.43.48c.59.62,1.29,1.23,2,1.87l.5.43.49-.43c.75-.64,1.44-1.25,2-1.87a6.25,6.25,0,0,0,.43-.48,4.67,4.67,0,0,0,1.26-3.06A4.16,4.16,0,0,0,89.52,16.42ZM90,23.59a2.07,2.07,0,0,1-.51.05,2.12,2.12,0,0,1-.51-.05,3,3,0,1,1,1,0Z"/></svg>